<?xml version="1.0" encoding="UTF-8" standalone="no"?>
<!-- Created with Inkscape (http://www.inkscape.org/) -->

<svg
   xmlns:dc="http://purl.org/dc/elements/1.1/"
   xmlns:cc="http://creativecommons.org/ns#"
   xmlns:rdf="http://www.w3.org/1999/02/22-rdf-syntax-ns#"
   xmlns:svg="http://www.w3.org/2000/svg"
   xmlns="http://www.w3.org/2000/svg"
   xmlns:sodipodi="http://sodipodi.sourceforge.net/DTD/sodipodi-0.dtd"
   xmlns:inkscape="http://www.inkscape.org/namespaces/inkscape"
   width="97.026039mm"
   height="67.16021mm"
   viewBox="0 0 97.026039 67.16021"
   version="1.1"
   id="svg8262"
   inkscape:version="0.92.0 r15299"
   sodipodi:docname="niche.svg">
  <defs
     id="defs8256" />
  <sodipodi:namedview
     id="base"
     pagecolor="#ffffff"
     bordercolor="#666666"
     borderopacity="1.0"
     inkscape:pageopacity="0.0"
     inkscape:pageshadow="2"
     inkscape:zoom="2.1315366"
     inkscape:cx="181.46654"
     inkscape:cy="125.02716"
     inkscape:document-units="mm"
     inkscape:current-layer="layer1"
     showgrid="false"
     fit-margin-top="0"
     fit-margin-left="0"
     fit-margin-right="0"
     fit-margin-bottom="0"
     inkscape:window-width="1280"
     inkscape:window-height="744"
     inkscape:window-x="-4"
     inkscape:window-y="-4"
     inkscape:window-maximized="1" />
  <metadata
     id="metadata8259">
    <rdf:RDF>
      <cc:Work
         rdf:about="">
        <dc:format>image/svg+xml</dc:format>
        <dc:type
           rdf:resource="http://purl.org/dc/dcmitype/StillImage" />
        <dc:title></dc:title>
      </cc:Work>
    </rdf:RDF>
  </metadata>
  <g
     inkscape:label="Layer 1"
     inkscape:groupmode="layer"
     id="layer1"
     transform="translate(-235.46912,0.15153611)">
    <g
       transform="translate(-226.29191,66.904513)"
       id="g8233">
      <path
         d="m 491.50518,-17.407043 c -0.51673,0 -0.93557,0.314325 -0.93557,1.1049 v 14.9264685 c 0,0.51620212 0.41884,0.93503753 0.93557,0.93503753 0.51647,0 0.9353,-0.41883541 0.9353,-0.93503753 V -16.279918 c 0,-0.768615 -0.41883,-1.127125 -0.9353,-1.127125 z"
         id="path8148"
         inkscape:connector-curvature="0"
         style="fill:#464646;stroke-width:0.26458332" />
      <path
         d="m 483.87169,-17.407043 c -0.51673,0 -0.93557,0.314325 -0.93557,1.1049 V -4.0847432 L 471.6863,-17.031599 c -0.0741,-0.08758 -0.16192,-0.156104 -0.2577,-0.206375 -0.15267,-0.112448 -0.3384,-0.169069 -0.53975,-0.169069 -0.51673,0 -0.93557,0.314325 -0.93557,1.1049 v 14.9264685 c 0,0.51620212 0.41884,0.93503753 0.93557,0.93503753 0.51646,0 0.9353,-0.41883541 0.9353,-0.93503753 V -14.174099 l 11.30803,13.40723078 c 0.13308,0.15795625 0.31062,0.25452917 0.49847,0.29104167 0.0773,0.0206375 0.15716,0.0351896 0.24104,0.0351896 0.51646,0 0.9353,-0.41883541 0.9353,-0.93503755 V -16.279918 c 0,-0.768615 -0.41884,-1.127125 -0.9353,-1.127125 z"
         id="path8150"
         inkscape:connector-curvature="0"
         style="fill:#464646;stroke-width:0.26458332" />
      <path
         d="m 531.99834,-17.407043 c -0.51621,0 -0.93504,0.314325 -0.93504,1.1049 v 6.4666811 h -11.11224 v -6.4444561 c 0,-0.768615 -0.4183,-1.127125 -0.93503,-1.127125 -0.004,0 -0.008,7.94e-4 -0.0119,7.94e-4 -0.004,0 -0.007,-7.94e-4 -0.0106,-7.94e-4 -0.51621,0 -0.93504,0.314325 -0.93504,1.1049 v 14.9264685 c 0,0.51620212 0.41883,0.93503753 0.93504,0.93503753 0.004,0 0.007,-0.001058 0.0111,-0.001058 0.004,0 0.008,0.001058 0.0114,0.001058 0.51673,0 0.93503,-0.41883541 0.93503,-0.93503753 v -6.8844582 h 11.11224 v 6.8844582 c 0,0.51620212 0.41883,0.93503753 0.93504,0.93503753 0.51699,0 0.9353,-0.41883541 0.9353,-0.93503753 V -16.279918 c 0,-0.768615 -0.41831,-1.127125 -0.9353,-1.127125 z"
         id="path8152"
         inkscape:connector-curvature="0"
         style="fill:#464646;stroke-width:0.26458332" />
      <path
         d="m 503.01588,-15.344616 c 2.67335,-1.339056 5.83459,-0.57494 7.87585,1.509713 0.39105,0.398727 1.00806,0.4826 1.40573,0.119856 0.32914,-0.300831 0.41487,-0.869686 -0.0122,-1.30519 -2.51513,-2.568839 -6.25951,-3.267075 -9.59644,-2.058723 -2.92126,1.057275 -5.06862,3.853921 -5.47634,6.906154 -0.41937,3.1374295 0.96361,6.2738003 3.52345,8.1232378 2.80538,2.02670831 6.63734,2.19180831 9.63745,0.4884208 0.61966,-0.3518958 1.18957,-0.7897812 1.70604,-1.2784666 0.46857,-0.4445 0.22568,-1.0670646 -0.16114,-1.3448771 -0.36512,-0.2611437 -0.8501,-0.2034646 -1.23322,0.1592792 -2.13254,2.0203583 -5.19007,2.5426458 -7.83087,1.2202583 -2.40057,-1.2020021 -3.78196,-3.786452 -3.75021,-6.4224958 0.0312,-2.5979436 1.61317,-4.9659646 3.91187,-6.1171666 z"
         id="path8154"
         inkscape:connector-curvature="0"
         style="fill:#464646;stroke-width:0.26458332" />
      <path
         d="m 551.25207,-15.831185 c 0.64717,0 0.94958,-0.352689 0.94958,-0.787929 0,-0.434975 -0.26484,-0.788194 -0.93106,-0.788194 h -11.44826 c -0.003,0 -0.004,5.3e-4 -0.006,7.94e-4 -0.003,-2.64e-4 -0.004,-7.94e-4 -0.006,-7.94e-4 -0.5162,0 -0.93503,0.314325 -0.93503,1.1049 v 14.926469 c 0,0.51620204 0.41883,0.93503745 0.93503,0.93503745 0.004,0 0.007,-0.001058 0.0114,-0.001058 0.004,0 0.007,0.001058 0.0111,0.001058 0.0103,0 0.0199,-0.002646 0.0302,-0.003175 h 11.38899 c 0.64717,0 0.94958,-0.35268958 0.94958,-0.78766455 0,-0.4352396 -0.26484,-0.7879292 -0.93106,-0.7879292 H 540.7679 v -6.2409916 h 8.4799 c 0.64717,0 0.94906,-0.352425 0.94906,-0.7874 0,-0.4355041 -0.26432,-0.7881937 -0.93001,-0.7881937 h -8.49895 v -5.9954584 h 10.48412 z"
         id="path8156"
         inkscape:connector-curvature="0"
         style="fill:#464646;stroke-width:0.26458332" />
      <path
         d="m 556.43499,-13.832258 c -1.02103,0 -1.85209,-0.831056 -1.85209,-1.852083 0,-1.021027 0.83106,-1.852083 1.85209,-1.852083 1.02103,0 1.85208,0.831056 1.85208,1.852083 0,1.021027 -0.83105,1.852083 -1.85208,1.852083 z m 0,-3.4671 c -0.87551,0 -1.5875,0.739775 -1.5875,1.615017 0,0.875242 0.71199,1.631421 1.5875,1.631421 0.8755,0 1.5875,-0.756179 1.5875,-1.631421 0,-0.875242 -0.712,-1.615017 -1.5875,-1.615017 z"
         id="path8158"
         inkscape:connector-curvature="0"
         style="fill:#464646;stroke-width:0.26458332" />
      <path
         d="m 556.67761,-15.581683 c 0.34078,-0.03387 0.51673,-0.294481 0.51673,-0.586581 0,-0.324114 -0.24924,-0.575998 -0.5633,-0.596635 v -0.0021 h -0.72654 c -0.0564,0 -0.10213,0.04577 -0.10213,0.102129 0,0.0064 0,0.01244 0.003,0.01826 0,0.0085 -0.003,0.01693 -0.003,0.02672 v 1.872457 c 0,0.133614 0.031,0.17092 0.12065,0.17092 0.0733,0 0.11774,-0.04577 0.11774,-0.171979 0,-0.163248 0,-0.829733 0,-0.829733 h 0.39343 l 0.41831,0.832908 c 0,0 0.09,0.201613 0.19976,0.146844 0.11404,-0.05715 0.004,-0.248708 0.004,-0.248708 z m -0.63712,-0.980545 h 0.55854 v 0.0019 c 0.19738,0.0056 0.35692,0.190764 0.35692,0.392641 0,0.198438 -0.15425,0.375179 -0.34713,0.386027 h -0.56833 z"
         id="path8160"
         inkscape:connector-curvature="0"
         style="fill:#464646;stroke-width:0.26458332" />
      <path
         d="m 493.02786,-56.424353 c -0.62998,0 -1.14062,0.51091 -1.14062,1.140883 v 17.78979 L 476.2284,-56.056053 c -0.25294,-0.306123 -0.63976,-0.430742 -1.00488,-0.368035 -0.62971,2.64e-4 -1.14009,0.51091 -1.14009,1.140618 v 21.06295 c 0,0.629973 0.51064,1.140619 1.14088,1.140619 0.62997,0 1.14088,-0.510646 1.14088,-1.140619 v -17.920758 l 15.71678,18.632487 c 0.1278,0.154517 0.29157,0.258234 0.46779,0.320675 0.14578,0.06773 0.30691,0.108215 0.4781,0.108215 0.63024,0 1.14088,-0.510646 1.14088,-1.140619 v -21.06295 c 0,-0.629973 -0.51091,-1.140883 -1.14088,-1.140883 z"
         id="path8164"
         inkscape:connector-curvature="0"
         style="fill:#53a63a;stroke-width:0.26458332" />
      <path
         d="m 505.8755,-44.919211 c -0.0307,-6.482292 -2.97075,-12.637029 -7.98063,-16.748125 -5.10672,-4.190471 -11.9769,-5.755481 -18.4195,-4.429125 -6.23808,1.284287 -11.72475,5.459148 -14.70977,11.067256 -3.0787,5.784321 -3.33349,12.823825 -0.68448,18.816902 2.59715,5.876131 7.76129,10.284354 13.90174,12.097279 6.35238,1.875102 13.31383,0.594519 18.72085,-3.156479 5.7285,-3.974306 9.13898,-10.708217 9.17179,-17.647708 z m -10.38014,16.145139 c -5.1689,3.796242 -12.01922,4.639204 -18.03373,2.556404 -5.88116,-2.036762 -10.44258,-7.067021 -12.24466,-12.968287 -1.88674,-6.179608 -0.51514,-12.986015 3.42768,-18.06284 3.89387,-5.013589 10.10656,-7.753879 16.41396,-7.484533 6.28623,0.268288 12.07929,3.77825 15.50008,9.004565 2.0963,3.202781 3.15966,6.992937 3.17765,10.809552 -0.0304,6.394979 -3.0906,12.362127 -8.24098,16.145139 z"
         id="path8166"
         inkscape:connector-curvature="0"
         style="fill:#53a63a;stroke-width:0.26458332" />
      <path
         d="m 509.8125,-56.817788 c 0.93371,0.750887 2.06533,1.447535 3.56129,2.192866 3.15648,1.572154 6.68152,2.341034 10.15867,2.207684 3.692,-0.142875 7.07972,-1.391444 10.23303,-2.65774 2.52624,-1.014942 5.54302,-2.131219 8.8392,-2.131219 0.30162,0 0.60616,0.0085 0.90567,0.02567 2.72124,0.153194 5.52873,1.091671 8.32511,2.633927 1.26392,0.696912 2.30346,1.414198 3.17659,2.192073 0.27464,0.245004 0.61436,0.380206 0.95594,0.380206 0.40508,0 0.78819,-0.25056 0.92445,-0.588433 0.13256,-0.328877 0.16934,-0.756179 -0.0717,-1.091406 -0.29871,-0.415925 -0.47096,-0.532078 -0.66252,-0.687653 -1.13215,-0.920485 -2.38098,-1.642004 -3.38402,-2.186252 -3.07789,-1.669785 -6.51854,-2.609056 -9.94965,-2.715947 -3.62638,-0.110067 -6.98844,1.022614 -10.06952,2.255043 -3.06969,1.228461 -6.35449,2.554817 -9.9441,2.602442 l -0.20955,0.0013 c -4.19893,2.64e-4 -8.62726,-1.731963 -11.53662,-4.322233 -0.46117,-0.410105 -1.29805,-0.350044 -1.65867,0.230716 -0.26485,0.426509 -0.12171,0.986896 -0.003,1.179513 0.0889,0.143933 0.20135,0.311414 0.40958,0.479425 z"
         id="path8206"
         inkscape:connector-curvature="0"
         style="fill:#53a63a;stroke-width:0.26458332" />
      <path
         d="m 509.8125,-45.572996 c 0.93371,0.750887 2.06533,1.447535 3.56129,2.192866 3.15648,1.572154 6.68152,2.341034 10.15867,2.207684 3.692,-0.142875 7.07972,-1.391444 10.23303,-2.65774 2.52624,-1.014942 5.54302,-2.131219 8.8392,-2.131219 0.30162,0 0.60616,0.0085 0.90567,0.02566 2.72124,0.153194 5.52873,1.091671 8.32511,2.633927 1.26392,0.696912 2.30346,1.414198 3.17659,2.192073 0.27464,0.245004 0.61436,0.380206 0.95594,0.380206 0.40508,0 0.78819,-0.25056 0.92445,-0.588433 0.13256,-0.328877 0.16934,-0.756179 -0.0717,-1.091406 -0.29871,-0.415925 -0.47096,-0.532078 -0.66252,-0.687653 -1.13215,-0.920485 -2.38098,-1.642004 -3.38402,-2.186252 -3.07789,-1.669785 -6.51854,-2.609056 -9.94965,-2.715947 -3.62638,-0.110067 -6.98844,1.022614 -10.06952,2.255043 -3.06969,1.228461 -6.35449,2.554817 -9.9441,2.602442 l -0.20955,0.0013 c -4.19893,2.64e-4 -8.62726,-1.731963 -11.53662,-4.322233 -0.46117,-0.410105 -1.29805,-0.350044 -1.65867,0.230716 -0.26485,0.426509 -0.12171,0.986896 -0.003,1.179513 0.0889,0.143933 0.20135,0.311414 0.40958,0.479425 z"
         id="path8210"
         inkscape:connector-curvature="0"
         style="fill:#53a63a;stroke-width:0.26458332" />
      <path
         d="m 509.8125,-34.328205 c 0.93371,0.750887 2.06533,1.447535 3.56129,2.192866 3.15648,1.572154 6.68152,2.341034 10.15867,2.207684 3.692,-0.142875 7.07972,-1.391444 10.23303,-2.65774 2.52624,-1.014942 5.54302,-2.131219 8.8392,-2.131219 0.30162,0 0.60616,0.0085 0.90567,0.02566 2.72124,0.153194 5.52873,1.091671 8.32511,2.633927 1.26392,0.696912 2.30346,1.414198 3.17659,2.192073 0.27464,0.245004 0.61436,0.380206 0.95594,0.380206 0.40508,0 0.78819,-0.25056 0.92445,-0.588433 0.13256,-0.328877 0.16934,-0.756179 -0.0717,-1.091406 -0.29871,-0.415925 -0.47096,-0.532078 -0.66252,-0.687653 -1.13215,-0.920485 -2.38098,-1.642004 -3.38402,-2.186252 -3.07789,-1.669785 -6.51854,-2.609056 -9.94965,-2.715947 -3.62638,-0.110067 -6.98844,1.022614 -10.06952,2.255043 -3.06969,1.228461 -6.35449,2.554817 -9.9441,2.602442 l -0.20955,0.0013 c -4.19893,2.64e-4 -8.62726,-1.731963 -11.53662,-4.322233 -0.46117,-0.410105 -1.29805,-0.350044 -1.65867,0.230716 -0.26485,0.426509 -0.12171,0.986896 -0.003,1.179513 0.0889,0.143933 0.20135,0.311414 0.40958,0.479425 z"
         id="path8214"
         inkscape:connector-curvature="0"
         style="fill:#53a63a;stroke-width:0.26458332" />
    </g>
  </g>
</svg>
