<svg id="Layer_1" data-name="Layer 1" xmlns="http://www.w3.org/2000/svg" viewBox="0 0 60.66667 74.53223"><defs><style>.cls-1{fill:#1967d2;}.cls-1,.cls-2{stroke:#000fff;stroke-miterlimit:10;stroke-width:0.22869px;}.cls-2,.cls-4{fill:#d11c3a;}.cls-3,.cls-4{font-size:2.7375px;font-family:Impact;}.cls-5{font-size:3.04992px;font-family:Rockwell Extra Bold;}</style></defs><title>inventory-logo</title><path class="cls-1" d="M22.06319,350.82038c-2.85073-9.46718,3.01842-18.02186,3.01842-18.02186s4.9127-5.98827,8.94346-5.98827v5.532s-8.7172,1.977-7.43292,12.1666l8.15957-5.9502,12.968,9.63827v5.07578s7.43425-6.84374-1.45331-12.37577l1.84459-3.65s8.3845,2.5664,5.19839,14.31483-18.39,11.40624-18.949,11.06405-7.32246-.28516-11.96188-10.55077Z" transform="translate(-5.66667 -317.05371)"/><polygon class="cls-2" points="30.874 18.482 30.874 14.775 33.948 14.775 33.948 10.84 36.855 10.84 36.855 14.661 39.929 14.661 39.929 18.482 36.799 18.482 36.855 22.189 33.892 22.189 33.836 18.425 30.874 18.482"/><path class="cls-1" d="M21.72781,357.83521v18.25h6.7076l0.72666-8.49765s-5.81325-4.16328-7.09887-9.125Z" transform="translate(-5.66667 -317.05371)"/><path class="cls-1" d="M39.50294,368.55708a15.43194,15.43194,0,0,0,8.105-6.15937v13.68749H40.2855Z" transform="translate(-5.66667 -317.05371)"/><text class="cls-3" transform="matrix(0.41945, -0.88582, 0.9038, 0.42796, 3.94515, 28.89763)"> </text><text class="cls-3" transform="translate(4.16341 28.43474) rotate(-65.10865) scale(0.98011 1)"> </text><text class="cls-3" transform="translate(4.36605 27.99724) rotate(-64.96349) scale(0.98011 1)"> </text><text class="cls-3" transform="translate(4.57064 27.56071) rotate(-64.71541) scale(0.98011 1)"> </text><text class="cls-3" transform="translate(4.7596 27.15935) rotate(-64.4575) scale(0.98011 1)"> </text><text class="cls-3" transform="translate(4.96859 26.72185) rotate(-64.1549) scale(0.98011 1)"> </text><text class="cls-3" transform="translate(5.18001 26.28728) rotate(-63.84617) scale(0.98011 1)"> </text><text class="cls-3" transform="matrix(0.43667, -0.87746, 0.89527, 0.44553, 5.38802, 25.86345)"> </text><text class="cls-3" transform="matrix(0.44117, -0.8752, 0.89297, 0.45013, 5.58919, 25.4572)"> </text><text class="cls-3" transform="matrix(0.44595, -0.87278, 0.89049, 0.455, 5.80257, 25.03435)"> </text><text class="cls-4" transform="matrix(0.45588, -0.86763, 0.88524, 0.46513, 6.01741, 24.60661)">G</text><text class="cls-4" transform="translate(6.69661 23.31853) rotate(-61.41349) scale(0.98011 1)">E</text><text class="cls-4" transform="translate(7.22005 22.35564) rotate(-60.60223) scale(0.98011 1)">T</text><text class="cls-4" transform="matrix(0.49017, -0.84873, 0.86595, 0.50012, 7.82454, 21.2863)"> </text><text class="cls-4" transform="matrix(0.49934, -0.84337, 0.86049, 0.50947, 8.05111, 20.88982)">T</text><text class="cls-4" transform="translate(8.67366 19.83513) rotate(-58.33421) scale(0.98011 1)">H</text><text class="cls-4" transform="translate(9.45394 18.57243) rotate(-57.28654) scale(0.98011 1)">E</text><text class="cls-4" transform="translate(10.05111 17.64861) rotate(-56.63063) scale(0.98011 1)"> </text><text class="cls-4" transform="translate(10.30111 17.26286) rotate(-55.84805) scale(0.98011 1)">P</text><text class="cls-4" transform="translate(11.05941 16.14275) rotate(-54.55589) scale(0.98011 1)">R</text><text class="cls-4" transform="matrix(0.58828, -0.78392, 0.79983, 0.60022, 11.89974, 14.96208)">O</text><text class="cls-4" transform="translate(12.75863 13.8156) rotate(-51.57249) scale(0.98011 1)">D</text><text class="cls-4" transform="translate(13.68831 12.6447) rotate(-49.84749) scale(0.98011 1)">U</text><text class="cls-4" transform="translate(14.62239 11.5363) rotate(-47.99842) scale(0.98011 1)">C</text><text class="cls-4" transform="translate(15.60921 10.44157) rotate(-46.12991) scale(0.98011 1)">T</text><text class="cls-4" transform="matrix(0.70259, -0.68336, 0.69723, 0.71685, 16.43831, 9.57634)">S</text><text class="cls-4" transform="matrix(0.72067, -0.66426, 0.67775, 0.7353, 17.44661, 8.60466)"> </text><text class="cls-4" transform="matrix(0.73937, -0.64338, 0.65644, 0.75438, 17.77571, 8.29118)">R</text><text class="cls-4" transform="matrix(0.76162, -0.61688, 0.6294, 0.77708, 18.84603, 7.36638)">I</text><text class="cls-4" transform="matrix(0.78564, -0.58598, 0.59787, 0.80159, 19.44173, 6.87517)">G</text><text class="cls-4" transform="matrix(0.81796, -0.53996, 0.55092, 0.83456, 20.61507, 5.99724)">H</text><text class="cls-4" transform="matrix(0.84775, -0.49187, 0.50185, 0.86495, 21.83382, 5.19646)">T</text><text class="cls-4" transform="translate(22.88948 4.59196) rotate(-27.87959) scale(0.98011 1)"> </text><text class="cls-4" transform="translate(23.28695 4.36833) rotate(-25.31317) scale(0.98011 1)">A</text><text class="cls-4" transform="translate(24.36898 3.85368) rotate(-21.84357) scale(0.98011 1)">T</text><text class="cls-4" transform="translate(25.48812 3.41325) rotate(-19.17753) scale(0.98011 1)"> </text><text class="cls-4" transform="translate(25.91585 3.2531) rotate(-16.27259) scale(0.98011 1)">Y</text><text class="cls-4" transform="matrix(0.96043, -0.19538, 0.19935, 0.97993, 27.09896, 2.90154)">O</text><text class="cls-4" transform="translate(28.51058 2.6115) rotate(-6.07575) scale(0.98011 1)">U</text><text class="cls-4" transform="matrix(0.98006, -0.00974, 0.00994, 0.99995, 29.93782, 2.45915)">R</text><text class="cls-4" transform="translate(31.3387 2.45915) rotate(2.98565) scale(0.98011 1)"> </text><text class="cls-4" transform="matrix(0.97342, 0.11432, -0.11664, 0.99317, 31.80159, 2.46696)">D</text><text class="cls-4" transform="translate(33.23372 2.63396) rotate(12.03708) scale(0.98011 1)">O</text><text class="cls-4" transform="translate(34.63216 2.93181) rotate(17.06118) scale(0.98011 1)">O</text><text class="cls-4" transform="translate(36.0096 3.35368) rotate(21.72046) scale(0.98011 1)">R</text><text class="cls-4" transform="translate(37.32991 3.88103) rotate(25.86872) scale(0.98011 1)">S</text><text class="cls-4" transform="translate(38.55257 4.48454) rotate(28.36092) scale(0.98011 1)"> </text><text class="cls-4" transform="matrix(0.84266, 0.50054, -0.5107, 0.85976, 38.95784, 4.69255)">S</text><text class="cls-4" transform="translate(40.13411 5.39372) rotate(33.77328) scale(0.98011 1)">T</text><text class="cls-4" transform="translate(41.14583 6.07146) rotate(36.26742) scale(0.98011 1)">E</text><text class="cls-4" transform="translate(42.02474 6.71306) rotate(38.63804) scale(0.98011 1)">P</text><text class="cls-4" transform="translate(43.07161 7.55876) rotate(40.28949) scale(0.98011 1)"> </text><text class="cls-4" transform="translate(43.4305 7.85466) rotate(41.83166) scale(0.98011 1)">A</text><text class="cls-4" transform="matrix(0.70961, 0.67607, -0.68979, 0.72401, 44.3221, 8.65154)">T</text><text class="cls-4" transform="matrix(0.69467, 0.69141, -0.70544, 0.70876, 45.21468, 9.50798)"> </text><text class="cls-4" transform="translate(45.54573 9.82927) rotate(46.11089) scale(0.98011 1)">A</text><text class="cls-4" transform="matrix(0.66497, 0.72002, -0.73463, 0.67847, 46.47591, 10.80388)"> </text><text class="cls-4" transform="matrix(0.65075, 0.7329, -0.74777, 0.66395, 46.79134, 11.13884)">V</text><text class="cls-4" transform="translate(47.73079 12.20036) rotate(49.83415) scale(0.98011 1)">E</text><text class="cls-4" transform="translate(48.43245 13.02849) rotate(51.13566) scale(0.98011 1)">R</text><text class="cls-4" transform="matrix(0.59744, 0.77696, -0.79273, 0.60957, 49.34163, 14.15837)">Y</text><text class="cls-4" transform="matrix(0.58694, 0.78493, -0.80086, 0.59885, 50.1053, 15.15544)"> </text><text class="cls-4" transform="translate(50.39486 15.5363) rotate(54.04969) scale(0.98011 1)">C</text><text class="cls-4" transform="matrix(0.55906, 0.80502, -0.82136, 0.57041, 51.2596, 16.73064)">H</text><text class="cls-4" transform="translate(52.10238 17.94646) rotate(56.17376) scale(0.98011 1)">E</text><text class="cls-4" transform="translate(52.71224 18.85564) rotate(56.93002) scale(0.98011 1)">E</text><text class="cls-4" transform="matrix(0.52316, 0.8288, -0.84563, 0.53377, 53.32698, 19.79802)">P</text><text class="cls-4" transform="translate(54.03939 20.93083) rotate(58.29507) scale(0.98011 1)"> </text><text x="-5.66667" y="-317.05371"/><text class="cls-5" transform="matrix(0.01491, 0.83851, -0.99984, 0.01778, 1.78646, 35.21696)"> </text><text class="cls-5" transform="translate(1.79964 35.90056) rotate(87.77652) scale(0.83864 1)"> </text><text class="cls-5" transform="translate(1.82552 36.56462) rotate(86.86876) scale(0.83864 1)"> </text><text class="cls-5" transform="translate(1.86116 37.2072) rotate(86.08339) scale(0.83864 1)"> </text><text class="cls-5" transform="translate(1.90706 37.88005) rotate(85.33156) scale(0.83864 1)"> </text><text class="cls-5" transform="translate(1.96029 38.52654) rotate(84.63513) scale(0.83864 1)"> </text><text class="cls-5" transform="translate(2.0223 39.18864) rotate(83.94537) scale(0.83864 1)"> </text><text class="cls-5" transform="translate(2.09163 39.84099) rotate(83.28294) scale(0.83864 1)"> </text><text class="cls-5" transform="matrix(0.10756, 0.83171, -0.99174, 0.12826, 2.16829, 40.4904)"> </text><text class="cls-5" transform="translate(2.25374 41.14763) rotate(81.96979) scale(0.83864 1)"> </text><text class="cls-5" transform="matrix(0.12644, 0.82905, -0.98857, 0.15077, 2.34456, 41.79314)"> </text><text class="cls-5" transform="translate(2.4432 42.43864) rotate(80.68439) scale(0.83864 1)"> </text><text class="cls-5" transform="translate(2.55208 43.10466) rotate(80.01967) scale(0.83864 1)"> </text><text class="cls-5" transform="translate(2.66439 43.74236) rotate(79.37434) scale(0.83864 1)"> </text><text class="cls-5" transform="translate(2.78695 44.39568) rotate(78.70704) scale(0.83864 1)"> </text><text class="cls-5" transform="matrix(0.17377, 0.82044, -0.9783, 0.20721, 2.91634, 45.04021)"> </text><text class="cls-5" transform="translate(3.05062 45.67204) rotate(77.37912) scale(0.83864 1)"> </text><text class="cls-5" transform="translate(3.19417 46.31657) rotate(76.69565) scale(0.83864 1)"> </text><text class="cls-5" transform="matrix(0.20263, 0.81379, -0.97037, 0.24162, 3.34261, 46.94353)"> </text><text class="cls-5" transform="matrix(0.21253, 0.81126, -0.96736, 0.25342, 3.50179, 47.58122)"> </text><text class="cls-5" transform="translate(3.67073 48.22575) rotate(74.5978) scale(0.83864 1)"> </text><text class="cls-4" transform="matrix(0.28712, 0.93711, -0.95613, 0.29295, 3.84505, 48.89665)">W</text><text class="cls-4" transform="matrix(0.31919, 0.92668, -0.94549, 0.32566, 4.50716, 51.02654)">E</text><text class="cls-4" transform="translate(4.88314 52.10661) rotate(70.00268) scale(0.98011 1)"> </text><text class="cls-4" transform="matrix(0.35393, 0.91397, -0.93252, 0.36111, 5.05208, 52.58415)">P</text><text class="cls-4" transform="translate(5.55208 53.87614) rotate(66.98515) scale(0.98011 1)">R</text><text class="cls-4" transform="translate(6.13997 55.25993) rotate(64.94282) scale(0.98011 1)">O</text><text class="cls-4" transform="translate(6.79232 56.65056) rotate(62.8082) scale(0.98011 1)">V</text><text class="cls-4" transform="matrix(0.47339, 0.8582, -0.87562, 0.483, 7.46224, 57.94255)">I</text><text class="cls-4" transform="translate(7.85726 58.66814) rotate(59.30511) scale(0.98011 1)">D</text><text class="cls-4" transform="translate(8.63753 59.97575) rotate(57.16291) scale(0.98011 1)">E</text><text class="cls-4" transform="translate(9.27034 60.94841) rotate(55.77636) scale(0.98011 1)"> </text><text class="cls-4" transform="translate(9.55013 61.36931) rotate(54.24166) scale(0.98011 1)">Y</text><text class="cls-4" transform="translate(10.34407 62.47185) rotate(51.68706) scale(0.98011 1)">O</text><text class="cls-4" transform="translate(11.29427 63.67204) rotate(48.89246) scale(0.98011 1)">U</text><text class="cls-4" transform="translate(12.29769 64.80876) rotate(46.97538) scale(0.98011 1)"> </text><text class="cls-4" transform="translate(12.65804 65.22087) rotate(44.2729) scale(0.98011 1)">W</text><text class="cls-4" transform="translate(14.30745 66.79704) rotate(41.15628) scale(0.98011 1)">I</text><text class="cls-4" transform="translate(14.9222 67.34099) rotate(39.04298) scale(0.98011 1)">T</text><text class="cls-4" transform="matrix(0.79202, 0.57733, -0.58905, 0.8081, 15.95198, 68.1779)">H</text><text class="cls-4" transform="translate(17.18734 69.0656) rotate(34.01656) scale(0.98011 1)"> </text><text class="cls-4" transform="translate(17.63411 69.37517) rotate(32.12424) scale(0.98011 1)">T</text><text class="cls-4" transform="translate(18.74788 70.07439) rotate(29.18085) scale(0.98011 1)">H</text><text class="cls-4" transform="matrix(0.87774, 0.4361, -0.44495, 0.89555, 20.10677, 70.82634)">E</text><text class="cls-4" transform="translate(21.14144 71.33415) rotate(24.75759) scale(0.98011 1)"> </text><text class="cls-4" transform="translate(21.639 71.57243) rotate(22.67862) scale(0.98011 1)">B</text><text class="cls-4" transform="translate(23.0682 72.16228) rotate(20.05187) scale(0.98011 1)">E</text><text class="cls-4" transform="matrix(0.93433, 0.29604, -0.30205, 0.95329, 24.17904, 72.5695)">S</text><text class="cls-4" transform="translate(25.5765 73.00798) rotate(15.0634) scale(0.98011 1)">T</text><text class="cls-4" transform="translate(26.79769 73.32829) rotate(14.28664) scale(0.98011 1)"> </text><text class="cls-4" transform="translate(27.4056 73.52068) rotate(7.51091) scale(0.98011 1)">M</text><text class="cls-4" transform="translate(29.50863 73.75993) rotate(1.14681) scale(0.98011 1)">E</text><text class="cls-4" transform="translate(30.75325 73.78532) rotate(-3.40492) scale(0.98011 1)">D</text><text class="cls-4" transform="translate(32.31038 73.67888) rotate(-7.0392) scale(0.98011 1)">I</text><text class="cls-4" transform="translate(33.19173 73.57732) rotate(-10.64614) scale(0.98011 1)">C</text><text class="cls-4" transform="matrix(0.94679, -0.25337, 0.25851, 0.96601, 34.76693, 73.27556)">A</text><text class="cls-4" transform="matrix(0.92961, -0.31054, 0.31684, 0.94848, 36.1678, 72.89177)">L</text><text class="cls-4" transform="translate(37.1888 72.54411) rotate(-20.61205) scale(0.98011 1)"> </text><text class="cls-4" transform="translate(37.6888 72.3615) rotate(-22.8315) scale(0.98011 1)">E</text><text class="cls-4" transform="matrix(0.88306, -0.42522, 0.43385, 0.90098, 38.77718, 71.89958)">L</text><text class="cls-4" transform="translate(39.76986 71.42009) rotate(-28.52876) scale(0.98011 1)">E</text><text class="cls-4" transform="matrix(0.83289, -0.51662, 0.52711, 0.8498, 40.83236, 70.84587)">C</text><text class="cls-4" transform="translate(42.16292 70.01189) rotate(-35.04403) scale(0.98011 1)">T</text><text class="cls-4" transform="translate(43.24691 69.2531) rotate(-38.06797) scale(0.98011 1)">R</text><text class="cls-4" transform="translate(44.43831 68.31657) rotate(-41.11449) scale(0.98011 1)">O</text><text class="cls-4" transform="matrix(0.7048, -0.68108, 0.6949, 0.7191, 45.61116, 67.29021)">N</text><text class="cls-4" transform="matrix(0.67991, -0.70592, 0.72025, 0.69371, 46.69124, 66.23552)">I</text><text class="cls-4" transform="translate(47.27034 65.64177) rotate(-48.05448) scale(0.98011 1)">C</text><text class="cls-4" transform="translate(48.28743 64.49626) rotate(-49.68285) scale(0.98011 1)"> </text><text class="cls-4" transform="translate(48.61605 64.11833) rotate(-51.1057) scale(0.98011 1)">P</text><text class="cls-4" transform="translate(49.49984 63.02263) rotate(-53.19942) scale(0.98011 1)">R</text><text class="cls-4" transform="translate(50.40218 61.81462) rotate(-55.2334) scale(0.98011 1)">O</text><text class="cls-4" transform="translate(51.26058 60.57634) rotate(-57.1307) scale(0.98011 1)">D</text><text class="cls-4" transform="matrix(0.50638, -0.83916, 0.85619, 0.51666, 52.08236, 59.3029)">U</text><text class="cls-4" transform="translate(52.86751 57.99821) rotate(-60.56618) scale(0.98011 1)">C</text><text class="cls-4" transform="translate(53.61605 56.66814) rotate(-62.00225) scale(0.98011 1)">T</text><text class="cls-4" transform="translate(54.21614 55.54021) rotate(-63.30614) scale(0.98011 1)">S</text></svg>